<?xml version="1.0" encoding="UTF-8"?>
<svg version="1.1" xmlns="http://www.w3.org/2000/svg" width="164" height="49">
<path d="M0 0 C39.6 0 79.2 0 120 0 C120 0.66 120 1.32 120 2 C80.4 2 40.8 2 0 2 C0 1.34 0 0.68 0 0 Z " fill="#ffffff" transform="translate(42,23)"/>
<path d="M0 0 C0.99 0.33 1.98 0.66 3 1 C2.67 2.98 2.34 4.96 2 7 C2.598125 6.505 3.19625 6.01 3.8125 5.5 C6 4 6 4 9 4 C8.67 3.01 8.34 2.02 8 1 C9.98 0.67 11.96 0.34 14 0 C16.26606344 4.13223332 16.06081228 7.47633383 15.6796875 12.01171875 C15 14 15 14 12.9453125 15.26953125 C11.98238281 15.63111328 11.98238281 15.63111328 11 16 C11.350625 15.175 11.70125 14.35 12.0625 13.5 C13.22335775 9.16613108 12.75705178 6.39090031 12 2 C11.90912109 2.95712891 11.90912109 2.95712891 11.81640625 3.93359375 C11.73261719 4.75988281 11.64882812 5.58617187 11.5625 6.4375 C11.48128906 7.26121094 11.40007812 8.08492187 11.31640625 8.93359375 C11 11 11 11 10 12 C8.00047242 12.04346799 5.99960012 12.039992 4 12 C3.01 12 2.02 12 1 12 C-0.66666667 12 -2.33333333 12 -4 12 C-4.33 12.99 -4.66 13.98 -5 15 C-6.12764117 11.66279166 -5.87990246 9.68716506 -4.75 6.375 C-4.49734375 5.59898438 -4.2446875 4.82296875 -3.984375 4.0234375 C-3 2 -3 2 0 0 Z M-1 2 C-1.33 2.99 -1.66 3.98 -2 5 C-1.01 5 -0.02 5 1 5 C1 4.01 1 3.02 1 2 C0.34 2 -0.32 2 -1 2 Z M-3 6 C-3 7.65 -3 9.3 -3 11 C-1.68 10.34 -0.36 9.68 1 9 C0.67 8.01 0.34 7.02 0 6 C-0.99 6 -1.98 6 -3 6 Z M6 6 C5.67 7.65 5.34 9.3 5 11 C6.54166642 9.62514468 6.54166642 9.62514468 8 8 C8 7.34 8 6.68 8 6 C7.34 6 6.68 6 6 6 Z " fill="#ffffff" transform="translate(141,29)"/>
<path d="M0 0 C2.625 0.375 2.625 0.375 5 1 C6.41703948 6.28169261 5.49499401 9.19482636 3 14 C2.34 14.66 1.68 15.32 1 16 C-1.625 15.625 -1.625 15.625 -4 15 C-5.49975802 10.63706757 -4.49636028 7.87608014 -2.88671875 3.76953125 C-2 2 -2 2 0 0 Z M1 2 C0.34 3.65 -0.32 5.3 -1 7 C0.32 7 1.64 7 3 7 C3 5.35 3 3.7 3 2 C2.34 2 1.68 2 1 2 Z M-2 9 C-2 10.98 -2 12.96 -2 15 C1.12474627 13.36526484 1.12474627 13.36526484 1.6875 10.875 C1.790625 10.25625 1.89375 9.6375 2 9 C0.68 9 -0.64 9 -2 9 Z " fill="#ffffff" transform="translate(5,14)"/>
<path d="M0 0 C0 4.62 0 9.24 0 14 C0.99 14 1.98 14 3 14 C3 14.66 3 15.32 3 16 C0.03 16 -2.94 16 -6 16 C-6 15.34 -6 14.68 -6 14 C-5.01 14 -4.02 14 -3 14 C-3 10.37 -3 6.74 -3 3 C-3.99 3 -4.98 3 -6 3 C-6 2.34 -6 1.68 -6 1 C-3.92446352 0.4465236 -2.15634036 0 0 0 Z " fill="#ffffff" transform="translate(52,32)"/>
<path d="M0 0 C0.33 1.32 0.66 2.64 1 4 C-0.98 4.99 -2.96 5.98 -5 7 C-5 7.66 -5 8.32 -5 9 C-3.02 8.34 -1.04 7.68 1 7 C0.67 7.99 0.34 8.98 0 10 C-2.875 10.625 -2.875 10.625 -6 11 C-8 9 -8 9 -8.3125 6.0625 C-8 3 -8 3 -6.8125 1.125 C-4.43963721 -0.34781139 -2.74086056 -0.22223194 0 0 Z M-4 2 C-4.33 2.66 -4.66 3.32 -5 4 C-3.68 3.67 -2.36 3.34 -1 3 C-1.99 2.67 -2.98 2.34 -4 2 Z " fill="#ffffff" transform="translate(92,37)"/>
<path d="M0 0 C0 4.29 0 8.58 0 13 C0.66 13 1.32 13 2 13 C2 13.66 2 14.32 2 15 C-0.64 15 -3.28 15 -6 15 C-6 14.34 -6 13.68 -6 13 C-5.01 13 -4.02 13 -3 13 C-3 9.7 -3 6.4 -3 3 C-3.99 3 -4.98 3 -6 3 C-6 2.34 -6 1.68 -6 1 C-3 0 -3 0 0 0 Z " fill="#ffffff" transform="translate(104,0)"/>
<path d="M0 0 C0 2.31 0 4.62 0 7 C-2.97 7 -5.94 7 -9 7 C-9.25 4.6875 -9.25 4.6875 -9 2 C-6.04897468 -1.27891703 -4.09533092 -1.25135112 0 0 Z M-6 1 C-6.33 2.65 -6.66 4.3 -7 6 C-6.01 5.67 -5.02 5.34 -4 5 C-4 3.68 -4 2.36 -4 1 C-4.66 1 -5.32 1 -6 1 Z " fill="#ffffff" transform="translate(122,34)"/>
<path d="M0 0 C0.33 0 0.66 0 1 0 C1 1.65 1 3.3 1 5 C2.65 5 4.3 5 6 5 C6 5.66 6 6.32 6 7 C4.35 7 2.7 7 1 7 C0.67 8.32 0.34 9.64 0 11 C0 9.68 0 8.36 0 7 C-1.65 7 -3.3 7 -5 7 C-5 6.34 -5 5.68 -5 5 C-3.35 5 -1.7 5 0 5 C0 3.35 0 1.7 0 0 Z " fill="#ffffff" transform="translate(128,31)"/>
<path d="M0 0 C0.66 0.33 1.32 0.66 2 1 C1.67 1.66 1.34 2.32 1 3 C0.92948311 4.64445394 0.91574906 6.29167854 0.9375 7.9375 C0.94652344 8.81277344 0.95554687 9.68804687 0.96484375 10.58984375 C0.97644531 11.38519531 0.98804687 12.18054688 1 13 C1 13.99 1 14.98 1 16 C-1.16168863 14.26608617 -1.93703947 13.4116129 -2.36328125 10.625 C-2.34652344 9.75875 -2.32976562 8.8925 -2.3125 8 C-2.30863281 7.13375 -2.30476563 6.2675 -2.30078125 5.375 C-2 3 -2 3 0 0 Z " fill="#ffffff" transform="translate(110,29)"/>
<path d="M0 0 C4.95 0 9.9 0 15 0 C15 0.66 15 1.32 15 2 C9.72 2 4.44 2 -1 2 C-0.67 1.34 -0.34 0.68 0 0 Z " fill="#ffffff" transform="translate(18,21)"/>
<path d="M0 0 C0.33 0 0.66 0 1 0 C1 2.31 1 4.62 1 7 C3.31 7 5.62 7 8 7 C8 7.33 8 7.66 8 8 C5.69 8 3.38 8 1 8 C1 10.31 1 12.62 1 15 C0.67 15 0.34 15 0 15 C0 12.69 0 10.38 0 8 C-2.31 8 -4.62 8 -7 8 C-7 7.67 -7 7.34 -7 7 C-4.69 7 -2.38 7 0 7 C0 4.69 0 2.38 0 0 Z " fill="#ffffff" transform="translate(69,34)"/>
<path d="M0 0 C3.63 0 7.26 0 11 0 C10.67 0.66 10.34 1.32 10 2 C6.7 2 3.4 2 0 2 C0 1.34 0 0.68 0 0 Z " fill="#ffffff" transform="translate(95,36)"/>
<path d="M0 0 C5.28 0 10.56 0 16 0 C16 0.33 16 0.66 16 1 C10.72 1 5.44 1 0 1 C0 0.67 0 0.34 0 0 Z " fill="#ffffff" transform="translate(17,26)"/>
</svg>
