<?xml version="1.0" encoding="utf-8"?>
<!-- Generator: Adobe Illustrator 21.0.2, SVG Export Plug-In . SVG Version: 6.00 Build 0)  -->
<svg version="1.1" id="Layer_1" xmlns="http://www.w3.org/2000/svg" xmlns:xlink="http://www.w3.org/1999/xlink" x="0px" y="0px"
	 viewBox="0 0 558 199.6" style="enable-background:new 0 0 558 199.6;" xml:space="preserve">
<style type="text/css">
	.st0{fill:#504A4E;}
	.st1{fill:#12698A;}
	.st2{fill:#12698B;}
	.st3{fill:#524A4E;}
</style>
<g>
	<g>
		<path class="st0" d="M195.5,50.3c0-1.4,0.8-2.2,2.2-2.2h33.5c13.1,0,20.1,7,20.1,20.1v34.1c0,13-7,20.1-20.1,20.1h-16.8v35.2
			c0,1.4-0.7,2.2-2.2,2.2h-14.5c-1.4,0-2.2-0.8-2.2-2.2V50.3z M226.7,103.9c3.8,0,5.6-2.1,5.6-5.6V72.1c0-3.6-1.8-5.6-5.6-5.6h-12.3
			v37.4H226.7z"/>
		<path class="st0" d="M319.5,74c1.8,0,2.7,1.2,2,2.8L299,127.6v29.6c0,1.6-0.9,2.4-2.5,2.4h-11.8c-1.6,0-2.5-0.9-2.5-2.4v-29.6
			l-22.4-50.8c-0.7-1.6,0.1-2.8,2-2.8h12.3c1.5,0,2.3,0.7,2.8,2l13.7,31.5l13.7-31.5c0.5-1.2,1.3-2,2.8-2H319.5z"/>
		<path class="st0" d="M406.8,48.1c1.8,0,2.8,1,2.8,2.8v106.1c0,1.8-1,2.8-2.8,2.8h-13c-1.8,0-2.8-1-2.8-2.8V94.1h-1l-13.8,63.1
			c-0.4,1.7-1.4,2.5-3.1,2.5h-6.8c-1.7,0-2.7-0.8-3.1-2.5l-13.8-63.1h-1v62.8c0,1.8-1,2.8-2.8,2.8h-12.8c-1.8,0-2.8-1-2.8-2.8V50.9
			c0-1.8,1-2.8,2.8-2.8h18.4c1.7,0,2.7,0.8,3.1,2.5l15.5,69.5l15.5-69.5c0.4-1.7,1.4-2.5,3.1-2.5H406.8z"/>
		<path class="st0" d="M479.5,83.2c0,1.4-0.8,2.2-2.2,2.2h-14c-1.5,0-2.2-0.8-2.2-2.2V72.1c0-3.6-2-5.6-5.6-5.6h-7.3
			c-3.8,0-5.6,2-5.6,5.6v63.6c0,3.8,2,5.6,5.6,5.6h7.3c3.6,0,5.6-1.8,5.6-5.6v-11.2c0-1.4,0.7-2.2,2.2-2.2h14c1.4,0,2.2,0.8,2.2,2.2
			v15.1c0,13.1-7.1,20.1-20.1,20.1h-15.6c-13.1,0-20.2-7-20.2-20.1V68.2c0-13.1,7.1-20.1,20.2-20.1h15.6c13,0,20.1,7,20.1,20.1V83.2
			z"/>
		<path class="st1" d="M549.5,93.8c0,5.2-3.8,9.1-8.8,9.9v0.3c5,0.8,8.8,4.7,8.8,9.9v25.7c0,13.1-7.1,20.1-20.2,20.1H513
			c-12.7,0-19.5-6.8-19.5-19.5v-4.6c0-1.8,1-2.8,2.8-2.8h13.4c1.8,0,2.8,1,2.8,2.8v5.7h15.6c1.8,0,2.8-1,2.8-2.8v-19.8
			c0-3.6-1.8-5.6-5.6-5.6h-16.5c-1.8,0-2.8-1-2.8-2.8V97.5c0-1.8,1-2.8,2.8-2.8h16.5c3.6,0,5.6-2,5.6-5.4v-20c0-1.8-1-2.8-2.8-2.8
			h-15.6v5.7c0,1.8-1,2.8-2.8,2.8h-13.4c-1.8,0-2.8-1-2.8-2.8v-5.7c0-12,6.8-18.4,19.5-18.4h16.2c13.1,0,20.2,7,20.2,20.1V93.8z"/>
	</g>
	<g>
		<g>
			
				<rect x="62.1" y="139" transform="matrix(0.7784 -0.6278 0.6278 0.7784 -81.7106 73.3774)" class="st1" width="1.9" height="26.8"/>
			
				<rect x="61.1" y="138" transform="matrix(0.7784 -0.6278 0.6278 0.7784 -81.7104 73.3772)" class="st2" width="3.9" height="28.8"/>
		</g>
		<g>
			<path class="st0" d="M138.8,74.8c-7.9-4.4-10.8-14.4-6.4-22.4c4.4-7.9,14.4-10.8,22.4-6.4c7.9,4.4,10.8,14.4,6.4,22.4
				C156.8,76.3,146.8,79.2,138.8,74.8z M153.4,48.5c-6.6-3.6-14.9-1.3-18.5,5.3c-3.6,6.6-1.3,14.9,5.3,18.5
				c6.6,3.6,14.9,1.3,18.5-5.3C162.3,60.4,159.9,52.1,153.4,48.5z"/>
			<path class="st1" d="M152,50.6c0,0-8.8-1-15.4,6.3C136.5,56.9,141,47.2,152,50.6z"/>
			<path class="st1" d="M152.2,53.9c0,0-6.6-0.8-11.5,4.7C140.7,58.6,144,51.4,152.2,53.9z"/>
		</g>
		<g>
			<rect x="31.9" y="172.8" class="st2" width="36.3" height="3.9"/>
			<rect x="97.2" y="172.8" class="st2" width="51.5" height="3.9"/>
			<polygon class="st2" points="98.5,169.8 118.4,133.9 99.5,123.5 79.7,159.3 83,161.2 101,128.7 113.2,135.5 95.2,167.9 			"/>
		</g>
		<g>
			<path class="st3" d="M22.4,162.1c-7,0-12.7,5.7-12.7,12.7c0,7,5.7,12.7,12.7,12.7c7,0,12.7-5.7,12.7-12.7
				C35.1,167.8,29.4,162.1,22.4,162.1z M22.4,184.1c-5.1,0-9.3-4.2-9.3-9.3c0-5.1,4.2-9.3,9.3-9.3c5.1,0,9.3,4.2,9.3,9.3
				C31.7,179.9,27.5,184.1,22.4,184.1z"/>
			<path class="st3" d="M159.3,162.1c-7,0-12.7,5.7-12.7,12.7c0,7,5.7,12.7,12.7,12.7c7,0,12.7-5.7,12.7-12.7
				C172,167.8,166.3,162.1,159.3,162.1z M159.3,184.1c-5.1,0-9.3-4.2-9.3-9.3c0-5.1,4.2-9.3,9.3-9.3c5.1,0,9.3,4.2,9.3,9.3
				C168.6,179.9,164.4,184.1,159.3,184.1z"/>
			<path class="st3" d="M47.7,121c-1.1,0-2.3,0.2-3.4,0.5c-6.8,1.9-10.7,8.9-8.9,15.6c1.5,5.5,6.6,9.3,12.3,9.3
				c1.1,0,2.3-0.2,3.4-0.5c6.8-1.9,10.7-8.9,8.9-15.6C58.5,124.8,53.4,121,47.7,121z M47.7,143c-4.2,0-7.9-2.8-9-6.8
				c-1.4-4.9,1.6-10.1,6.5-11.4c0.8-0.2,1.6-0.3,2.5-0.3c4.2,0,7.9,2.8,9,6.8c0.7,2.4,0.3,4.9-0.9,7.1c-1.2,2.2-3.2,3.7-5.6,4.4
				C49.4,142.9,48.6,143,47.7,143z"/>
			<path class="st3" d="M91.9,159.6c-2.5-1.4-5.4-2.2-8.3-2.2c-6.3,0-12.1,3.4-15.1,8.9c-2.2,4-2.8,8.7-1.5,13.1
				c1.3,4.4,4.2,8.1,8.2,10.3c2.5,1.4,5.4,2.2,8.3,2.2c6.3,0,12.1-3.4,15.1-8.9c2.2-4,2.8-8.7,1.5-13.1
				C98.8,165.5,95.9,161.8,91.9,159.6z M70.6,178.4c-1-3.5-0.6-7.1,1.2-10.2c2.4-4.3,6.9-6.9,11.8-6.9c2.3,0,4.5,0.6,6.5,1.7
				c6.5,3.6,8.8,11.8,5.2,18.3c-2.4,4.3-6.9,6.9-11.8,6.9c0,0,0,0,0,0c-2.3,0-4.5-0.6-6.5-1.7C73.9,184.7,71.6,181.8,70.6,178.4z"/>
		</g>
		<g>
			<path class="st1" d="M123.8,141.2l-33.7-18.7c-1.1-0.6-1.7-2-1.4-3.2c13.1-49.9,34.4-77.2,50-91.3c17.1-15.4,31-18.9,31.5-19
				c0.7-0.2,1.4-0.1,2,0.3l3.9,2.2c0.6,0.3,1.1,0.9,1.3,1.6c0.2,0.6,4.7,14.2,0.6,36.8c-3.7,20.6-15.5,53.1-50.9,90.8
				C126.3,141.6,124.9,141.8,123.8,141.2z M94.8,118.7l29.8,16.5c58.9-63.7,49.7-111.8,47.8-119.2l-1.8-1
				c-3.4,1.1-14.9,5.4-28.4,17.7C127.5,46,107.5,71.7,94.8,118.7z"/>
			<path class="st1" d="M70.1,134.2c-0.1,0-0.1-0.1-0.2-0.1c-0.9-0.6-1.4-1.6-1.3-2.7l2.4-24.1c0-0.1,0-0.1,0-0.2
				c4.7-28,33.4-28,33.6-28c1.6,0,2.8,1.3,2.8,2.9c0,1.6-1.3,2.8-2.9,2.8l0,0c-1,0-24,0.1-28,23.2l-1.9,18.4l15.2-8.8
				c1.4-0.8,3.1-0.3,3.9,1c0.8,1.4,0.3,3.1-1,3.9l-20,11.6C72,134.6,71,134.7,70.1,134.2z"/>
			<path class="st1" d="M124.6,164.3c-0.9-0.5-1.4-1.4-1.5-2.4l-0.8-23.1c-0.1-1.6,1.2-2.9,2.7-2.9c1.6-0.1,2.9,1.2,2.9,2.7
				l0.6,17.6l14.6-11.4c17.5-15.6,5.4-35.2,4.8-36c-0.8-1.3-0.5-3.1,0.9-3.9c1.3-0.8,3.1-0.5,3.9,0.9c0.2,0.2,15.3,24.5-5.9,43.4
				c0,0-0.1,0.1-0.1,0.1l-19.1,14.8c-0.8,0.7-2,0.8-2.9,0.3C124.7,164.4,124.6,164.4,124.6,164.3z"/>
		</g>
		<path class="st3" d="M163.2,55.5c-1.3-4.4-4.2-8.1-8.2-10.3c-2.5-1.4-5.4-2.2-8.3-2.2c-6.3,0-12.1,3.4-15.1,8.9
			c-4.6,8.3-1.6,18.8,6.7,23.4c2.5,1.4,5.4,2.2,8.3,2.2c6.3,0,12.1-3.4,15.1-8.9C163.9,64.6,164.4,60,163.2,55.5z M146.6,46.8
			c2.3,0,4.5,0.6,6.5,1.7c3.1,1.7,5.4,4.6,6.4,8.1c1,3.5,0.6,7.1-1.2,10.2c-2.4,4.3-6.9,6.9-11.8,6.9c-2.3,0-4.5-0.6-6.5-1.7
			c-3.1-1.7-5.4-4.6-6.4-8.1c-1-3.5-0.6-7.1,1.2-10.2C137.2,49.5,141.7,46.8,146.6,46.8z"/>
	</g>
</g>
</svg>
