<?xml version="1.0" encoding="UTF-8" standalone="no"?>
<!-- Generator: Adobe Illustrator 21.0.2, SVG Export Plug-In . SVG Version: 6.00 Build 0)  -->

<svg
   xmlns:dc="http://purl.org/dc/elements/1.1/"
   xmlns:cc="http://creativecommons.org/ns#"
   xmlns:rdf="http://www.w3.org/1999/02/22-rdf-syntax-ns#"
   xmlns:svg="http://www.w3.org/2000/svg"
   xmlns="http://www.w3.org/2000/svg"
   xmlns:sodipodi="http://sodipodi.sourceforge.net/DTD/sodipodi-0.dtd"
   xmlns:inkscape="http://www.inkscape.org/namespaces/inkscape"
   version="1.1"
   id="Layer_1"
   x="0px"
   y="0px"
   viewBox="0 0 490 199.6"
   xml:space="preserve"
   sodipodi:docname="PyMC_banner_01.svg"
   width="490"
   height="199.60001"
   inkscape:version="0.92.5 (2060ec1f9f, 2020-04-08)"
   inkscape:export-filename="/u/32/martino5/unix/Desktop/PyMC_banner_01.png"
   inkscape:export-xdpi="300"
   inkscape:export-ydpi="300"><metadata
   id="metadata3883"><rdf:RDF><cc:Work
       rdf:about=""><dc:format>image/svg+xml</dc:format><dc:type
         rdf:resource="http://purl.org/dc/dcmitype/StillImage" /><dc:title></dc:title></cc:Work></rdf:RDF></metadata><defs
   id="defs3881">
		
		
		
		
		
	</defs><sodipodi:namedview
   pagecolor="#ffffff"
   bordercolor="#666666"
   borderopacity="1"
   objecttolerance="10"
   gridtolerance="10"
   guidetolerance="10"
   inkscape:pageopacity="0"
   inkscape:pageshadow="2"
   inkscape:window-width="1848"
   inkscape:window-height="1009"
   id="namedview3879"
   showgrid="false"
   showguides="true"
   inkscape:guide-bbox="true"
   inkscape:zoom="2.1111826"
   inkscape:cx="223.6447"
   inkscape:cy="43.377616"
   inkscape:window-x="72"
   inkscape:window-y="34"
   inkscape:window-maximized="1"
   inkscape:current-layer="g3876" />
<style
   type="text/css"
   id="style3818">
	.st0{fill:#504A4E;}
	.st1{fill:#12698A;}
	.st2{fill:#12698B;}
	.st3{fill:#524A4E;}
</style>
<g
   id="g3876"
   transform="translate(0,2.6496075e-4)">
	<path
   style="fill:#504a4e"
   inkscape:connector-curvature="0"
   id="path3820"
   d="m 195.5,50.3 c 0,-1.4 0.8,-2.2 2.2,-2.2 h 33.5 c 13.1,0 20.1,7 20.1,20.1 v 34.1 c 0,13 -7,20.1 -20.1,20.1 h -16.8 v 35.2 c 0,1.4 -0.7,2.2 -2.2,2.2 h -14.5 c -1.4,0 -2.2,-0.8 -2.2,-2.2 z m 31.2,53.6 c 3.8,0 5.6,-2.1 5.6,-5.6 V 72.1 c 0,-3.6 -1.8,-5.6 -5.6,-5.6 h -12.3 v 37.4 z"
   class="st0" /><path
   style="fill:#504a4e"
   inkscape:connector-curvature="0"
   id="path3822"
   d="m 319.5,74 c 1.8,0 2.7,1.2 2,2.8 L 299,127.6 v 29.6 c 0,1.6 -0.9,2.4 -2.5,2.4 h -11.8 c -1.6,0 -2.5,-0.9 -2.5,-2.4 V 127.6 L 259.8,76.8 c -0.7,-1.6 0.1,-2.8 2,-2.8 h 12.3 c 1.5,0 2.3,0.7 2.8,2 l 13.7,31.5 13.7,-31.5 c 0.5,-1.2 1.3,-2 2.8,-2 z"
   class="st0" /><path
   style="fill:#12698a;fill-opacity:1"
   inkscape:connector-curvature="0"
   id="path3824"
   d="m 406.8,48.1 c 1.8,0 2.8,1 2.8,2.8 V 157 c 0,1.8 -1,2.8 -2.8,2.8 h -13 c -1.8,0 -2.8,-1 -2.8,-2.8 V 94.1 h -1 l -13.8,63.1 c -0.4,1.7 -1.4,2.5 -3.1,2.5 h -6.8 c -1.7,0 -2.7,-0.8 -3.1,-2.5 L 349.4,94.1 h -1 v 62.8 c 0,1.8 -1,2.8 -2.8,2.8 h -12.8 c -1.8,0 -2.8,-1 -2.8,-2.8 v -106 c 0,-1.8 1,-2.8 2.8,-2.8 h 18.4 c 1.7,0 2.7,0.8 3.1,2.5 l 15.5,69.5 15.5,-69.5 c 0.4,-1.7 1.4,-2.5 3.1,-2.5 z"
   class="st0"
   inkscape:export-xdpi="300"
   inkscape:export-ydpi="300" /><path
   style="fill:#12698a;fill-opacity:1"
   inkscape:connector-curvature="0"
   id="path3826"
   d="m 479.5,83.2 c 0,1.4 -0.8,2.2 -2.2,2.2 h -14 c -1.5,0 -2.2,-0.8 -2.2,-2.2 V 72.1 c 0,-3.6 -2,-5.6 -5.6,-5.6 h -7.3 c -3.8,0 -5.6,2 -5.6,5.6 v 63.6 c 0,3.8 2,5.6 5.6,5.6 h 7.3 c 3.6,0 5.6,-1.8 5.6,-5.6 v -11.2 c 0,-1.4 0.7,-2.2 2.2,-2.2 h 14 c 1.4,0 2.2,0.8 2.2,2.2 v 15.1 c 0,13.1 -7.1,20.1 -20.1,20.1 h -15.6 c -13.1,0 -20.2,-7 -20.2,-20.1 V 68.2 c 0,-13.1 7.1,-20.1 20.2,-20.1 h 15.6 c 13,0 20.1,7 20.1,20.1 z"
   class="st0"
   inkscape:export-xdpi="300"
   inkscape:export-ydpi="300" />
	<g
   id="g3874">
		<g
   id="g3836">
			
				<rect
   x="62.099998"
   y="139"
   transform="matrix(0.7784,-0.6278,0.6278,0.7784,-81.7106,73.3774)"
   class="st1"
   width="1.9"
   height="26.799999"
   id="rect3832"
   style="fill:#12698a" />
			
				<rect
   x="61.099998"
   y="138"
   transform="matrix(0.7784,-0.6278,0.6278,0.7784,-81.7104,73.3772)"
   class="st2"
   width="3.9000001"
   height="28.799999"
   id="rect3834"
   style="fill:#12698b" />
		</g>
		<g
   id="g3844">
			<path
   class="st0"
   d="m 138.8,74.8 c -7.9,-4.4 -10.8,-14.4 -6.4,-22.4 4.4,-7.9 14.4,-10.8 22.4,-6.4 7.9,4.4 10.8,14.4 6.4,22.4 -4.4,7.9 -14.4,10.8 -22.4,6.4 z m 14.6,-26.3 c -6.6,-3.6 -14.9,-1.3 -18.5,5.3 -3.6,6.6 -1.3,14.9 5.3,18.5 6.6,3.6 14.9,1.3 18.5,-5.3 3.6,-6.6 1.2,-14.9 -5.3,-18.5 z"
   id="path3838"
   inkscape:connector-curvature="0"
   style="fill:#504a4e" />
			<path
   class="st1"
   d="m 152,50.6 c 0,0 -8.8,-1 -15.4,6.3 -0.1,0 4.4,-9.7 15.4,-6.3 z"
   id="path3840"
   inkscape:connector-curvature="0"
   style="fill:#12698a" />
			<path
   class="st1"
   d="m 152.2,53.9 c 0,0 -6.6,-0.8 -11.5,4.7 0,0 3.3,-7.2 11.5,-4.7 z"
   id="path3842"
   inkscape:connector-curvature="0"
   style="fill:#12698a" />
		</g>
		<g
   id="g3852">
			<rect
   x="31.9"
   y="172.8"
   class="st2"
   width="36.299999"
   height="3.9000001"
   id="rect3846"
   style="fill:#12698b" />
			<rect
   x="97.199997"
   y="172.8"
   class="st2"
   width="51.5"
   height="3.9000001"
   id="rect3848"
   style="fill:#12698b" />
			<polygon
   class="st2"
   points="99.5,123.5 79.7,159.3 83,161.2 101,128.7 113.2,135.5 95.2,167.9 98.5,169.8 118.4,133.9 "
   id="polygon3850"
   style="fill:#12698b" />
		</g>
		<g
   id="g3862">
			<path
   class="st3"
   d="m 22.4,162.1 c -7,0 -12.7,5.7 -12.7,12.7 0,7 5.7,12.7 12.7,12.7 7,0 12.7,-5.7 12.7,-12.7 0,-7 -5.7,-12.7 -12.7,-12.7 z m 0,22 c -5.1,0 -9.3,-4.2 -9.3,-9.3 0,-5.1 4.2,-9.3 9.3,-9.3 5.1,0 9.3,4.2 9.3,9.3 0,5.1 -4.2,9.3 -9.3,9.3 z"
   id="path3854"
   inkscape:connector-curvature="0"
   style="fill:#524a4e" />
			<path
   class="st3"
   d="m 159.3,162.1 c -7,0 -12.7,5.7 -12.7,12.7 0,7 5.7,12.7 12.7,12.7 7,0 12.7,-5.7 12.7,-12.7 0,-7 -5.7,-12.7 -12.7,-12.7 z m 0,22 c -5.1,0 -9.3,-4.2 -9.3,-9.3 0,-5.1 4.2,-9.3 9.3,-9.3 5.1,0 9.3,4.2 9.3,9.3 0,5.1 -4.2,9.3 -9.3,9.3 z"
   id="path3856"
   inkscape:connector-curvature="0"
   style="fill:#524a4e" />
			<path
   class="st3"
   d="m 47.7,121 c -1.1,0 -2.3,0.2 -3.4,0.5 -6.8,1.9 -10.7,8.9 -8.9,15.6 1.5,5.5 6.6,9.3 12.3,9.3 1.1,0 2.3,-0.2 3.4,-0.5 C 57.9,144 61.8,137 60,130.3 58.5,124.8 53.4,121 47.7,121 Z m 0,22 c -4.2,0 -7.9,-2.8 -9,-6.8 -1.4,-4.9 1.6,-10.1 6.5,-11.4 0.8,-0.2 1.6,-0.3 2.5,-0.3 4.2,0 7.9,2.8 9,6.8 0.7,2.4 0.3,4.9 -0.9,7.1 -1.2,2.2 -3.2,3.7 -5.6,4.4 -0.8,0.1 -1.6,0.2 -2.5,0.2 z"
   id="path3858"
   inkscape:connector-curvature="0"
   style="fill:#524a4e" />
			<path
   class="st3"
   d="m 91.9,159.6 c -2.5,-1.4 -5.4,-2.2 -8.3,-2.2 -6.3,0 -12.1,3.4 -15.1,8.9 -2.2,4 -2.8,8.7 -1.5,13.1 1.3,4.4 4.2,8.1 8.2,10.3 2.5,1.4 5.4,2.2 8.3,2.2 6.3,0 12.1,-3.4 15.1,-8.9 2.2,-4 2.8,-8.7 1.5,-13.1 -1.3,-4.4 -4.2,-8.1 -8.2,-10.3 z m -21.3,18.8 c -1,-3.5 -0.6,-7.1 1.2,-10.2 2.4,-4.3 6.9,-6.9 11.8,-6.9 2.3,0 4.5,0.6 6.5,1.7 6.5,3.6 8.8,11.8 5.2,18.3 -2.4,4.3 -6.9,6.9 -11.8,6.9 0,0 0,0 0,0 -2.3,0 -4.5,-0.6 -6.5,-1.7 -3.1,-1.8 -5.4,-4.7 -6.4,-8.1 z"
   id="path3860"
   inkscape:connector-curvature="0"
   style="fill:#524a4e" />
		</g>
		<g
   id="g3870">
			<path
   class="st1"
   d="M 123.8,141.2 90.1,122.5 c -1.1,-0.6 -1.7,-2 -1.4,-3.2 13.1,-49.9 34.4,-77.2 50,-91.3 17.1,-15.4 31,-18.9 31.5,-19 0.7,-0.2 1.4,-0.1 2,0.3 l 3.9,2.2 c 0.6,0.3 1.1,0.9 1.3,1.6 0.2,0.6 4.7,14.2 0.6,36.8 -3.7,20.6 -15.5,53.1 -50.9,90.8 -0.8,0.9 -2.2,1.1 -3.3,0.5 z m -29,-22.5 29.8,16.5 C 183.5,71.5 174.3,23.4 172.4,16 l -1.8,-1 c -3.4,1.1 -14.9,5.4 -28.4,17.7 -14.7,13.3 -34.7,39 -47.4,86 z"
   id="path3864"
   inkscape:connector-curvature="0"
   style="fill:#12698a" />
			<path
   class="st1"
   d="m 70.1,134.2 c -0.1,0 -0.1,-0.1 -0.2,-0.1 -0.9,-0.6 -1.4,-1.6 -1.3,-2.7 L 71,107.3 c 0,-0.1 0,-0.1 0,-0.2 4.7,-28 33.4,-28 33.6,-28 1.6,0 2.8,1.3 2.8,2.9 0,1.6 -1.3,2.8 -2.9,2.8 v 0 c -1,0 -24,0.1 -28,23.2 l -1.9,18.4 15.2,-8.8 c 1.4,-0.8 3.1,-0.3 3.9,1 0.8,1.4 0.3,3.1 -1,3.9 l -20,11.6 c -0.7,0.5 -1.7,0.6 -2.6,0.1 z"
   id="path3866"
   inkscape:connector-curvature="0"
   style="fill:#12698a" />
			<path
   class="st1"
   d="m 124.6,164.3 c -0.9,-0.5 -1.4,-1.4 -1.5,-2.4 l -0.8,-23.1 c -0.1,-1.6 1.2,-2.9 2.7,-2.9 1.6,-0.1 2.9,1.2 2.9,2.7 l 0.6,17.6 14.6,-11.4 c 17.5,-15.6 5.4,-35.2 4.8,-36 -0.8,-1.3 -0.5,-3.1 0.9,-3.9 1.3,-0.8 3.1,-0.5 3.9,0.9 0.2,0.2 15.3,24.5 -5.9,43.4 0,0 -0.1,0.1 -0.1,0.1 l -19.1,14.8 c -0.8,0.7 -2,0.8 -2.9,0.3 0,0 -0.1,0 -0.1,-0.1 z"
   id="path3868"
   inkscape:connector-curvature="0"
   style="fill:#12698a" />
		</g>
		<path
   class="st3"
   d="M 163.2,55.5 C 161.9,51.1 159,47.4 155,45.2 152.5,43.8 149.6,43 146.7,43 c -6.3,0 -12.1,3.4 -15.1,8.9 -4.6,8.3 -1.6,18.8 6.7,23.4 2.5,1.4 5.4,2.2 8.3,2.2 6.3,0 12.1,-3.4 15.1,-8.9 2.2,-4 2.7,-8.6 1.5,-13.1 z m -16.6,-8.7 c 2.3,0 4.5,0.6 6.5,1.7 3.1,1.7 5.4,4.6 6.4,8.1 1,3.5 0.6,7.1 -1.2,10.2 -2.4,4.3 -6.9,6.9 -11.8,6.9 -2.3,0 -4.5,-0.6 -6.5,-1.7 -3.1,-1.7 -5.4,-4.6 -6.4,-8.1 -1,-3.5 -0.6,-7.1 1.2,-10.2 2.4,-4.2 6.9,-6.9 11.8,-6.9 z"
   id="path3872"
   inkscape:connector-curvature="0"
   style="fill:#524a4e" />
	</g>
</g>
</svg>