<?xml version="1.0" encoding="utf-8"?>
<!-- Generator: Adobe Illustrator 21.0.2, SVG Export Plug-In . SVG Version: 6.00 Build 0)  -->
<svg version="1.1" id="Layer_1" xmlns="http://www.w3.org/2000/svg" xmlns:xlink="http://www.w3.org/1999/xlink" x="0px" y="0px"
	 viewBox="0 0 500 500" style="enable-background:new 0 0 500 500;" xml:space="preserve">
<style type="text/css">
	.st0{fill:#0E688A;}
	.st1{fill:#11688B;}
	.st2{fill:#504A4E;}
	.st3{fill:#514A4E;}
</style>
<g>
	<g>
		<g>
			<polygon class="st0" points="189.9,409.1 147.8,356.5 151.4,353.5 193.6,406.1 			"/>
			<polygon class="st1" points="189.5,412.8 144.1,356.1 151.8,349.8 197.2,406.5 			"/>
		</g>
		<g>
			<path class="st2" d="M360.6,185.1c-19.9-11.1-27.1-36.5-16.1-56.5c11-20,36.2-27.3,56.1-16.2c19.9,11.1,27.1,36.5,16.1,56.5
				C405.7,188.9,380.5,196.2,360.6,185.1z M397.1,118.7c-16.5-9.2-37.2-3.2-46.4,13.4c-9.1,16.6-3.1,37.5,13.3,46.7
				c16.4,9.2,37.2,3.2,46.4-13.4C419.5,148.8,413.6,127.9,397.1,118.7z"/>
			<path class="st0" d="M393.6,123.9c0,0-22.1-2.6-38.7,16C354.9,139.9,366,115.4,393.6,123.9z"/>
			<path class="st0" d="M394.2,132.3c0,0-16.5-1.9-28.9,11.9C365.3,144.3,373.6,126,394.2,132.3z"/>
		</g>
		<g>
			<rect x="92.4" y="433" class="st1" width="91" height="9.9"/>
			<rect x="255.9" y="433" class="st1" width="129.2" height="9.9"/>
			<polygon class="st1" points="259.5,425.1 309.3,334.5 262.1,308.2 212.4,398.8 220.7,403.4 265.7,321.4 296.3,338.5 251.2,420.5 
							"/>
		</g>
		<g>
			<path class="st3" d="M68.6,405.7c-17.6,0-31.9,14.4-31.9,32.1c0,17.7,14.3,32.1,31.9,32.1c17.6,0,31.9-14.4,31.9-32.1
				C100.5,420.1,86.2,405.7,68.6,405.7z M68.6,461.3c-12.8,0-23.3-10.5-23.3-23.5c0-12.9,10.4-23.5,23.3-23.5
				c12.8,0,23.3,10.5,23.3,23.5C91.9,450.8,81.4,461.3,68.6,461.3z"/>
			<path class="st3" d="M412,405.7c-17.6,0-31.9,14.4-31.9,32.1c0,17.7,14.3,32.1,31.9,32.1c17.6,0,31.9-14.4,31.9-32.1
				C443.9,420.1,429.6,405.7,412,405.7z M412,461.3c-12.8,0-23.3-10.5-23.3-23.5c0-12.9,10.4-23.5,23.3-23.5
				c12.8,0,23.3,10.5,23.3,23.5C435.3,450.8,424.8,461.3,412,461.3z"/>
			<path class="st3" d="M132.2,301.9c-2.8,0-5.7,0.4-8.4,1.2c-16.9,4.7-26.9,22.4-22.3,39.5c3.8,13.9,16.4,23.6,30.7,23.6
				c2.8,0,5.7-0.4,8.4-1.2c16.9-4.7,26.9-22.4,22.3-39.5C159.1,311.6,146.5,301.9,132.2,301.9z M132.2,357.5
				c-10.5,0-19.7-7.1-22.5-17.3c-3.4-12.5,3.9-25.4,16.3-28.9c2-0.6,4.1-0.8,6.2-0.8c10.5,0,19.7,7.1,22.5,17.3
				c1.6,6,0.9,12.4-2.2,17.8c-3.1,5.5-8.1,9.4-14.1,11C136.3,357.2,134.2,357.5,132.2,357.5z"/>
			<path class="st3" d="M242.8,399.4c-6.4-3.6-13.6-5.4-20.9-5.4c-15.8,0-30.3,8.6-37.9,22.5c-5.6,10.2-6.9,21.9-3.7,33.1
				c3.2,11.2,10.5,20.5,20.6,26.1c6.4,3.6,13.6,5.4,20.9,5.4c15.8,0,30.3-8.6,37.9-22.5c5.6-10.2,6.9-21.9,3.7-33.1
				C260.2,414.3,252.9,405,242.8,399.4z M189.5,446.8c-2.5-8.7-1.5-17.9,2.9-25.8c5.9-10.8,17.3-17.5,29.6-17.5
				c5.7,0,11.3,1.5,16.3,4.2c16.3,9.1,22.2,29.8,13.2,46.2c-5.9,10.8-17.3,17.5-29.5,17.5c0,0,0,0,0,0c-5.7,0-11.3-1.5-16.3-4.2
				C197.7,462.8,192,455.6,189.5,446.8z"/>
		</g>
		<g>
			<path class="st0" d="M322.9,353l-84.4-47.1c-2.9-1.6-4.3-4.9-3.4-8.1c33-126.2,86.3-195.1,125.3-230.6c42.8-39,77.6-47.7,79.1-48
				c1.7-0.4,3.5-0.2,5.1,0.7l9.7,5.4c1.5,0.9,2.7,2.3,3.3,4c0.5,1.4,11.7,35.8,1.6,93c-9.2,52.1-38.8,134.2-127.5,229.4
				C329.3,354,325.7,354.6,322.9,353z M250.2,296l74.7,41.7C472.6,176.8,449.5,55.2,444.7,36.4l-4.6-2.5
				c-8.4,2.7-37.3,13.6-71.1,44.7C332.3,112.3,282.2,177.3,250.2,296z"/>
			<path class="st0" d="M188.2,335.2c-0.1-0.1-0.3-0.2-0.4-0.2c-2.2-1.5-3.5-4.1-3.2-6.8l6.1-60.8c0-0.2,0-0.3,0.1-0.5
				c11.9-70.9,83.6-70.9,84.4-70.9c3.9,0,7.1,3.3,7,7.3c0,4-3.3,7.1-7.2,7.1l0,0c-2.5,0-60.2,0.3-70.1,58.7l-4.7,46.6l38.1-22.3
				c3.4-2,7.8-0.8,9.7,2.6c2,3.4,0.8,7.8-2.6,9.8l-50.2,29.3C193.1,336.4,190.4,336.4,188.2,335.2z"/>
			<path class="st0" d="M324.8,411.4c-2.2-1.2-3.6-3.5-3.7-6l-2-58.4c-0.1-4,2.9-7.3,6.9-7.4c3.9-0.1,7.2,3,7.4,6.9l1.5,44.4
				l36.7-28.7c43.9-39.5,13.5-89,12.1-91.1c-2.1-3.3-1.1-7.8,2.2-9.9c3.3-2.1,7.7-1.2,9.8,2.2c0.4,0.6,38.5,61.9-14.9,109.7
				c-0.1,0.1-0.2,0.2-0.4,0.3l-47.9,37.4c-2.1,1.7-5,2-7.4,0.8C325.1,411.6,325,411.5,324.8,411.4z"/>
		</g>
		<path class="st3" d="M421.6,136.4c-3.2-11.2-10.5-20.5-20.6-26.1c-6.4-3.6-13.6-5.4-20.9-5.4c-15.8,0-30.3,8.6-37.9,22.5
			c-11.5,21-4,47.6,16.9,59.2c6.4,3.6,13.6,5.4,20.9,5.4c15.8,0,30.3-8.6,37.9-22.5C423.5,159.4,424.8,147.6,421.6,136.4z
			 M380.2,114.5c5.7,0,11.3,1.5,16.3,4.2c7.9,4.4,13.6,11.6,16.1,20.3c2.5,8.7,1.5,17.9-2.9,25.8c-5.9,10.8-17.3,17.5-29.6,17.5
			c-5.7,0-11.3-1.5-16.3-4.2c-7.9-4.4-13.6-11.6-16.1-20.3c-2.5-8.7-1.5-17.9,2.9-25.8C356.5,121.2,367.9,114.5,380.2,114.5z"/>
	</g>
</g>
</svg>
