<?xml version="1.0" encoding="utf-8"?>
<!-- Generator: Adobe Illustrator 21.0.2, SVG Export Plug-In . SVG Version: 6.00 Build 0)  -->
<svg version="1.1" id="Layer_1" xmlns="http://www.w3.org/2000/svg" xmlns:xlink="http://www.w3.org/1999/xlink" x="0px" y="0px"
	 viewBox="0 0 500 500" style="enable-background:new 0 0 500 500;" xml:space="preserve">
<style type="text/css">
	.st0{fill:none;stroke:#1D1D1B;stroke-miterlimit:10;}
	.st1{fill:#0E688A;}
	.st2{fill:#11688B;}
	.st3{fill:#504A4E;}
	.st4{fill:#514A4E;}
</style>
<circle class="st0" cx="250" cy="250" r="250"/>
<g>
	<g>
		<g>
			<polygon class="st1" points="200,386.1 165.4,342.8 168.4,340.3 203,383.6 			"/>
			<polygon class="st2" points="199.7,389.1 162.4,342.4 168.7,337.3 206,383.9 			"/>
		</g>
		<g>
			<path class="st3" d="M340.4,201.8c-16.4-9.1-22.3-30-13.2-46.5c9.1-16.5,29.7-22.5,46.1-13.3c16.4,9.1,22.3,30,13.2,46.5
				C377.5,205,356.8,211,340.4,201.8z M370.4,147.2c-13.5-7.6-30.6-2.6-38.1,11c-7.5,13.6-2.6,30.9,10.9,38.4
				c13.5,7.6,30.6,2.6,38.1-11C388.9,172,384,154.8,370.4,147.2z"/>
			<path class="st1" d="M367.5,151.5c0,0-18.1-2.1-31.8,13.1C335.7,164.6,344.9,144.6,367.5,151.5z"/>
			<path class="st1" d="M368.1,158.5c0,0-13.6-1.6-23.8,9.8C344.3,168.3,351.1,153.3,368.1,158.5z"/>
		</g>
		<g>
			<rect x="119.9" y="405.7" class="st2" width="74.9" height="8.1"/>
			<rect x="254.3" y="405.7" class="st2" width="106.2" height="8.1"/>
			<polygon class="st2" points="257.3,399.2 298.2,324.7 259.4,303.1 218.5,377.6 225.3,381.4 262.4,314 287.5,328 250.5,395.4 			
				"/>
		</g>
		<g>
			<path class="st4" d="M100.3,383.3c-14.4,0-26.2,11.8-26.2,26.4c0,14.6,11.8,26.4,26.2,26.4c14.4,0,26.2-11.8,26.2-26.4
				C126.5,395.1,114.7,383.3,100.3,383.3z M100.3,429c-10.6,0-19.1-8.7-19.1-19.3c0-10.6,8.6-19.3,19.1-19.3
				c10.6,0,19.2,8.7,19.2,19.3C119.4,420.3,110.8,429,100.3,429z"/>
			<path class="st4" d="M382.7,383.3c-14.4,0-26.2,11.8-26.2,26.4c0,14.6,11.8,26.4,26.2,26.4c14.4,0,26.2-11.8,26.2-26.4
				C408.9,395.1,397.1,383.3,382.7,383.3z M382.7,429c-10.6,0-19.2-8.7-19.2-19.3c0-10.6,8.6-19.3,19.2-19.3
				c10.6,0,19.1,8.7,19.1,19.3C401.8,420.3,393.2,429,382.7,429z"/>
			<path class="st4" d="M152.5,297.9c-2.3,0-4.7,0.3-6.9,0.9c-13.9,3.9-22.1,18.4-18.3,32.5c3.1,11.4,13.5,19.4,25.3,19.4
				c2.3,0,4.7-0.3,6.9-0.9c13.9-3.9,22.1-18.4,18.3-32.5C174.7,305.9,164.3,297.9,152.5,297.9z M152.6,343.6
				c-8.6,0-16.2-5.8-18.5-14.2c-2.8-10.3,3.2-20.9,13.4-23.7c1.7-0.5,3.4-0.7,5.1-0.7c8.6,0,16.2,5.8,18.5,14.2
				c1.4,5,0.7,10.2-1.8,14.7c-2.5,4.5-6.6,7.7-11.6,9.1C156,343.4,154.3,343.6,152.6,343.6z"/>
			<path class="st4" d="M243.6,378.1c-5.3-2.9-11.2-4.5-17.2-4.5c-13,0-24.9,7.1-31.2,18.5c-4.6,8.4-5.7,18-3.1,27.2
				c2.6,9.2,8.6,16.8,16.9,21.5c5.3,2.9,11.2,4.5,17.2,4.5c13,0,24.9-7.1,31.2-18.5c4.6-8.4,5.7-18,3.1-27.2
				C257.9,390.3,251.9,382.7,243.6,378.1z M199.7,417.1c-2-7.2-1.2-14.7,2.4-21.2c4.9-8.9,14.2-14.4,24.3-14.4
				c4.7,0,9.3,1.2,13.4,3.5c13.4,7.5,18.2,24.5,10.8,38c-4.9,8.9-14.2,14.4-24.3,14.4c0,0,0,0,0,0c-4.7,0-9.3-1.2-13.4-3.5
				C206.4,430.2,201.7,424.3,199.7,417.1z"/>
		</g>
		<g>
			<path class="st1" d="M309.4,339.9l-69.4-38.8c-2.3-1.3-3.5-4.1-2.8-6.7c27.1-103.8,71-160.4,103-189.7
				c35.2-32.1,63.8-39.2,65-39.5c1.4-0.3,2.9-0.1,4.2,0.6l8,4.5c1.3,0.7,2.2,1.9,2.7,3.3c0.4,1.2,9.6,29.4,1.3,76.5
				c-7.6,42.9-31.9,110.4-104.9,188.6C314.7,340.7,311.7,341.2,309.4,339.9z M249.6,293.1l61.4,34.3C432.5,195,413.5,95,409.6,79.5
				l-3.8-2.1c-6.9,2.2-30.7,11.2-58.5,36.8C317.1,141.9,275.9,195.4,249.6,293.1z"/>
			<path class="st1" d="M198.7,325.3c-0.1-0.1-0.2-0.1-0.3-0.2c-1.8-1.2-2.9-3.3-2.7-5.6l5-50c0-0.1,0-0.3,0.1-0.4
				c9.7-58.3,68.8-58.3,69.4-58.3c3.2,0,5.8,2.7,5.8,6c0,3.3-2.7,5.9-5.9,5.8l0,0c-2,0-49.5,0.2-57.7,48.3l-3.8,38.3l31.4-18.3
				c2.8-1.6,6.4-0.7,8,2.1c1.6,2.8,0.7,6.4-2.1,8.1l-41.3,24.1C202.6,326.3,200.5,326.3,198.7,325.3z"/>
			<path class="st1" d="M311,388c-1.8-1-2.9-2.9-3-5l-1.6-48.1c-0.1-3.3,2.4-6,5.7-6.1c3.2-0.1,5.9,2.4,6,5.7l1.2,36.5l30.2-23.6
				c36.1-32.5,11.1-73.2,10-74.9c-1.7-2.7-0.9-6.4,1.8-8.1c2.7-1.8,6.3-1,8.1,1.8c0.3,0.5,31.6,50.9-12.2,90.2
				c-0.1,0.1-0.2,0.2-0.3,0.3l-39.4,30.8c-1.7,1.4-4.1,1.6-6.1,0.7C311.2,388.1,311.1,388,311,388z"/>
		</g>
		<path class="st4" d="M390.6,161.8c-2.6-9.2-8.6-16.8-16.9-21.5c-5.3-2.9-11.2-4.5-17.2-4.5c-13,0-24.9,7.1-31.2,18.5
			c-9.5,17.3-3.3,39.1,13.9,48.7c5.3,2.9,11.2,4.5,17.2,4.5c13,0,24.9-7.1,31.2-18.5C392.1,180.7,393.2,171,390.6,161.8z
			 M356.5,143.8c4.7,0,9.3,1.2,13.4,3.5c6.5,3.6,11.2,9.6,13.2,16.7c2,7.2,1.2,14.7-2.4,21.2c-4.9,8.9-14.2,14.4-24.3,14.4
			c-4.7,0-9.3-1.2-13.4-3.5c-6.5-3.6-11.2-9.6-13.2-16.7c-2-7.2-1.2-14.7,2.4-21.2C337.1,149.3,346.4,143.8,356.5,143.8z"/>
	</g>
</g>
</svg>
